<svg width="71" height="36" viewBox="0 0 71 36" fill="none" xmlns="http://www.w3.org/2000/svg">
<path d="M24 6.7575C24 14.445 24 22.1325 24 29.82C26.6673 31.8806 29.3346 33.9413 32 36C31.9786 24 31.9572 12 31.9377 0" fill="black"/>
<path d="M21.9311 28L22 19.1561L0.075923 0L0 9.7652L21.9311 28Z" fill="black"/>
<path d="M71 0V36H63V6.75L71 0Z" fill="black"/>
<path d="M24 6.75L32 0V36" fill="black"/>
<path d="M62 8V17.36L52 26V16.64L62 8Z" fill="black"/>
<path d="M51 16.2042V26L33 10.5515V0L51 16.2042Z" fill="black"/>
</svg>
